<svg width="20" height="20" viewBox="0 0 20 20" fill="none" xmlns="http://www.w3.org/2000/svg">
    <path d="M16 6C17.0609 6 18.0783 6.31607 18.8284 6.87868C19.5786 7.44129 20 8.20435 20 9V17C20 17.7956 19.5786 18.5587 18.8284 19.1213C18.0783 19.6839 17.0609 20 16 20H4C2.93913 20 1.92172 19.6839 1.17157 19.1213C0.421428 18.5587 0 17.7956 0 17V9C0 8.20435 0.421428 7.44129 1.17157 6.87868C1.92172 6.31607 2.93913 6 4 6V4.5C4 3.30653 4.63214 2.16193 5.75736 1.31802C6.88258 0.474106 8.4087 0 10 0C11.5913 0 13.1174 0.474106 14.2426 1.31802C15.3679 2.16193 16 3.30653 16 4.5V6ZM4 7C3.29276 7 2.61448 7.21071 2.11438 7.58579C1.61428 7.96086 1.33333 8.46957 1.33333 9V17C1.33333 17.5304 1.61428 18.0391 2.11438 18.4142C2.61448 18.7893 3.29276 19 4 19H16C16.7072 19 17.3855 18.7893 17.8856 18.4142C18.3857 18.0391 18.6667 17.5304 18.6667 17V9C18.6667 8.46957 18.3857 7.96086 17.8856 7.58579C17.3855 7.21071 16.7072 7 16 7H4ZM14.6667 6V4.5C14.6667 3.57174 14.175 2.6815 13.2998 2.02513C12.4247 1.36875 11.2377 1 10 1C8.76232 1 7.57534 1.36875 6.70017 2.02513C5.825 2.6815 5.33333 3.57174 5.33333 4.5V6H14.6667ZM10 12C9.46957 12 8.96086 12.158 8.58579 12.4393C8.21071 12.7206 8 13.1022 8 13.5C8 13.8978 8.21071 14.2794 8.58579 14.5607C8.96086 14.842 9.46957 15 10 15C10.5304 15 11.0391 14.842 11.4142 14.5607C11.7893 14.2794 12 13.8978 12 13.5C12 13.1022 11.7893 12.7206 11.4142 12.4393C11.0391 12.158 10.5304 12 10 12ZM10 11C10.8841 11 11.7319 11.2634 12.357 11.7322C12.9821 12.2011 13.3333 12.837 13.3333 13.5C13.3333 14.163 12.9821 14.7989 12.357 15.2678C11.7319 15.7366 10.8841 16 10 16C9.11595 16 8.2681 15.7366 7.64298 15.2678C7.01786 14.7989 6.66667 14.163 6.66667 13.5C6.66667 12.837 7.01786 12.2011 7.64298 11.7322C8.2681 11.2634 9.11595 11 10 11Z" fill="black" fill-opacity="0.886"/>
</svg>