<svg width="10" height="10" viewBox="0 0 10 10" fill="none" xmlns="http://www.w3.org/2000/svg">
    <path d="M3.80669 1.12559e-08C4.53492 -1.56552e-05 5.24786 0.208761 5.86094 0.601561C6.47402 0.99436 6.9615 1.55469 7.26554 2.21608C7.56959 2.87747 7.67743 3.61215 7.57628 4.33296C7.47513 5.05376 7.16923 5.73044 6.69487 6.2827L10 9.58619L9.58598 10L6.28027 6.69593C5.81406 7.09442 5.25839 7.37438 4.6606 7.51198C4.06281 7.64957 3.4406 7.64072 2.84697 7.48618C2.25334 7.33163 1.70588 7.03597 1.2512 6.62438C0.796523 6.21279 0.448109 5.69747 0.23563 5.12229C0.0231517 4.54711 -0.0470964 3.92913 0.0308692 3.32097C0.108835 2.71281 0.332704 2.13249 0.68341 1.62944C1.03412 1.12639 1.50127 0.715517 2.04508 0.431805C2.5889 0.148094 3.19326 -4.71478e-05 3.80669 1.12559e-08V1.12559e-08ZM3.80669 0.585309C2.95248 0.585309 2.13326 0.924473 1.52924 1.52819C0.925227 2.13191 0.585894 2.95072 0.585894 3.80451C0.585894 4.65829 0.925227 5.47711 1.52924 6.08082C2.13326 6.68454 2.95248 7.02371 3.80669 7.02371C4.6609 7.02371 5.48013 6.68454 6.08414 6.08082C6.68816 5.47711 7.02749 4.65829 7.02749 3.80451C7.02749 2.95072 6.68816 2.13191 6.08414 1.52819C5.48013 0.924473 4.6609 0.585309 3.80669 0.585309Z" fill="black"/>
</svg>
