<svg width="10" height="10" viewBox="0 0 10 10" fill="none" xmlns="http://www.w3.org/2000/svg">
    <path d="M5 6C7.76133 6 10 7.04467 10 8.33333V10H0V8.33333C0 7.04467 2.23867 6 5 6ZM9.33333 8.33333C9.33333 7.41333 7.39333 6.66667 5 6.66667C2.60667 6.66667 0.666667 7.41333 0.666667 8.33333V9.33333H9.33333V8.33333ZM5 0C5.61884 0 6.21233 0.245833 6.64992 0.683418C7.0875 1.121 7.33333 1.71449 7.33333 2.33333C7.33333 2.95217 7.0875 3.54566 6.64992 3.98325C6.21233 4.42083 5.61884 4.66667 5 4.66667C4.38116 4.66667 3.78767 4.42083 3.35008 3.98325C2.9125 3.54566 2.66667 2.95217 2.66667 2.33333C2.66667 1.71449 2.9125 1.121 3.35008 0.683418C3.78767 0.245833 4.38116 0 5 0ZM5 0.666667C4.55797 0.666667 4.13405 0.842261 3.82149 1.15482C3.50893 1.46738 3.33333 1.89131 3.33333 2.33333C3.33333 2.77536 3.50893 3.19928 3.82149 3.51184C4.13405 3.82441 4.55797 4 5 4C5.44203 4 5.86595 3.82441 6.17851 3.51184C6.49107 3.19928 6.66667 2.77536 6.66667 2.33333C6.66667 1.89131 6.49107 1.46738 6.17851 1.15482C5.86595 0.842261 5.44203 0.666667 5 0.666667Z" fill="black"/>
</svg>
